<svg width="100%" height="100%" viewBox="0 0 129 31" fill="none" xmlns="http://www.w3.org/2000/svg">
<path d="M40.4 12.91C39.062 13.03 37.952 13.09 37.07 13.09C36.482 13.09 36.05 12.952 35.774 12.676C35.498 12.4 35.36 11.968 35.36 11.38V8.5C35.36 7.87 35.501 7.414 35.783 7.132C36.071 6.844 36.53 6.7 37.16 6.7H40.4V7.96H37.52C37.16 7.96 36.98 8.14 36.98 8.5V11.38C36.98 11.518 37.019 11.629 37.097 11.713C37.181 11.791 37.286 11.83 37.412 11.83C37.538 11.83 37.676 11.83 37.826 11.83C37.976 11.824 38.132 11.818 38.294 11.812C38.456 11.806 38.618 11.8 38.78 11.794C38.948 11.788 39.161 11.776 39.419 11.758C39.683 11.74 40.01 11.719 40.4 11.695V12.91ZM46.6111 13H44.9911V10.435H42.7411V13H41.1211V6.7H42.7411V9.175H44.9911V6.7H46.6111V13ZM48.8203 13H47.0653L49.4503 6.7H51.2503L53.6353 13H51.8803L51.4753 11.875H49.2253L48.8203 13ZM49.6303 10.705H51.0703L50.3503 8.59L49.6303 10.705ZM59.4849 9.49L58.2249 11.74H56.9649L55.7049 9.49V13H54.0849V6.7H55.7949L57.5949 10.03L59.3949 6.7H61.1049V13H59.4849V9.49ZM67.1834 13H62.1884V6.7H67.1834V7.96H63.8084V9.175H66.4634V10.435H63.8084V11.74H67.1834V13ZM74.6496 6.7H76.2696V11.29C76.2696 11.92 76.1256 12.379 75.8376 12.667C75.5556 12.949 75.0996 13.09 74.4696 13.09H72.3996C71.7696 13.09 71.3106 12.949 71.0226 12.667C70.7406 12.379 70.5996 11.92 70.5996 11.29V6.7H72.2196V11.29C72.2196 11.65 72.3996 11.83 72.7596 11.83H74.1096C74.4696 11.83 74.6496 11.65 74.6496 11.29V6.7ZM82.7496 9.49L81.4896 11.74H80.2296L78.9696 9.49V13H77.3496V6.7H79.0596L80.8596 10.03L82.6596 6.7H84.3696V13H82.7496V9.49Z" fill="white"/>
<path d="M35.72 16.6H40.76C41.6 16.6 42.208 16.792 42.584 17.176C42.968 17.552 43.16 18.16 43.16 19V20.2C43.16 21.04 42.968 21.652 42.584 22.036C42.208 22.412 41.6 22.6 40.76 22.6H37.88V25H35.72V16.6ZM41 19C41 18.52 40.76 18.28 40.28 18.28H37.88V20.92H40.28C40.76 20.92 41 20.68 41 20.2V19ZM44.2395 16.6H49.2795C50.1195 16.6 50.7275 16.792 51.1035 17.176C51.4875 17.552 51.6795 18.16 51.6795 19V20.08C51.6795 20.744 51.5675 21.26 51.3435 21.628C51.1275 21.996 50.7795 22.24 50.2995 22.36L51.7995 25H49.4595L48.0795 22.48H46.3995V25H44.2395V16.6ZM49.5195 19C49.5195 18.52 49.2795 18.28 48.7995 18.28H46.3995V20.8H48.7995C49.2795 20.8 49.5195 20.56 49.5195 20.08V19ZM58.2763 18.88C58.2763 18.4 58.0363 18.16 57.5563 18.16H55.5163C55.0363 18.16 54.7963 18.4 54.7963 18.88V22.72C54.7963 23.2 55.0363 23.44 55.5163 23.44H57.5563C58.0363 23.44 58.2763 23.2 58.2763 22.72V18.88ZM60.4363 22.72C60.4363 23.56 60.2443 24.172 59.8603 24.556C59.4843 24.932 58.8763 25.12 58.0363 25.12H55.0363C54.1963 25.12 53.5843 24.932 53.2003 24.556C52.8243 24.172 52.6363 23.56 52.6363 22.72V18.88C52.6363 18.04 52.8243 17.432 53.2003 17.056C53.5843 16.672 54.1963 16.48 55.0363 16.48H58.0363C58.8763 16.48 59.4843 16.672 59.8603 17.056C60.2443 17.432 60.4363 18.04 60.4363 18.88V22.72ZM63.8019 25H61.6419V16.6H68.3019V18.28H63.8019V20.26H67.3419V21.94H63.8019V25ZM73.1019 25H68.7819V23.32H69.8619V18.28H68.7819V16.6H73.1019V18.28H72.0219V23.32H73.1019V25ZM73.9289 23.26C76.1209 23.38 77.6049 23.44 78.3809 23.44C78.5649 23.44 78.7089 23.388 78.8129 23.284C78.9249 23.172 78.9809 23.024 78.9809 22.84V21.76H76.2209C75.3809 21.76 74.7689 21.572 74.3849 21.196C74.0089 20.812 73.8209 20.2 73.8209 19.36V19C73.8209 18.16 74.0089 17.552 74.3849 17.176C74.7689 16.792 75.3809 16.6 76.2209 16.6H80.4329V18.28H76.7009C76.2209 18.28 75.9809 18.52 75.9809 19V19.24C75.9809 19.72 76.2209 19.96 76.7009 19.96H78.8609C79.6449 19.96 80.2209 20.144 80.5889 20.512C80.9569 20.88 81.1409 21.456 81.1409 22.24V22.84C81.1409 23.624 80.9569 24.2 80.5889 24.568C80.2209 24.936 79.6449 25.12 78.8609 25.12C78.4529 25.12 78.0209 25.112 77.5649 25.096L76.4609 25.048C75.6449 25.008 74.8009 24.952 73.9289 24.88V23.26ZM81.968 23.26C84.16 23.38 85.644 23.44 86.42 23.44C86.604 23.44 86.748 23.388 86.852 23.284C86.964 23.172 87.02 23.024 87.02 22.84V21.76H84.26C83.42 21.76 82.808 21.572 82.424 21.196C82.048 20.812 81.86 20.2 81.86 19.36V19C81.86 18.16 82.048 17.552 82.424 17.176C82.808 16.792 83.42 16.6 84.26 16.6H88.472V18.28H84.74C84.26 18.28 84.02 18.52 84.02 19V19.24C84.02 19.72 84.26 19.96 84.74 19.96H86.9C87.684 19.96 88.26 20.144 88.628 20.512C88.996 20.88 89.18 21.456 89.18 22.24V22.84C89.18 23.624 88.996 24.2 88.628 24.568C88.26 24.936 87.684 25.12 86.9 25.12C86.492 25.12 86.06 25.112 85.604 25.096L84.5 25.048C83.684 25.008 82.84 24.952 81.968 24.88V23.26ZM94.2191 25H89.8991V23.32H90.9791V18.28H89.8991V16.6H94.2191V18.28H93.1391V23.32H94.2191V25ZM100.698 18.88C100.698 18.4 100.458 18.16 99.9781 18.16H97.9381C97.4581 18.16 97.2181 18.4 97.2181 18.88V22.72C97.2181 23.2 97.4581 23.44 97.9381 23.44H99.9781C100.458 23.44 100.698 23.2 100.698 22.72V18.88ZM102.858 22.72C102.858 23.56 102.666 24.172 102.282 24.556C101.906 24.932 101.298 25.12 100.458 25.12H97.4581C96.6181 25.12 96.0061 24.932 95.6221 24.556C95.2461 24.172 95.0581 23.56 95.0581 22.72V18.88C95.0581 18.04 95.2461 17.432 95.6221 17.056C96.0061 16.672 96.6181 16.48 97.4581 16.48H100.458C101.298 16.48 101.906 16.672 102.282 17.056C102.666 17.432 102.858 18.04 102.858 18.88V22.72ZM111.384 25H109.104L106.224 19.96V25H104.064V16.6H106.344L109.224 21.64V16.6H111.384V25ZM114.329 25H111.989L115.169 16.6H117.569L120.749 25H118.409L117.869 23.5H114.869L114.329 25ZM115.409 21.94H117.329L116.369 19.12L115.409 21.94ZM123.509 23.32H127.889V25H121.349V16.6H123.509V23.32Z" fill="white"/>
<g clip-path="url(#clip0)">
<rect x="6" y="6" width="19" height="19" fill="white"/>
<path d="M26.4581 4.53783C20.4041 -1.51438 10.59 -1.51293 4.53783 4.54116C-1.51438 10.5952 -1.51292 20.4093 4.54116 26.4615C10.5952 32.5137 20.4093 32.5122 26.4615 26.4582C29.3681 23.5506 31.0006 19.6075 30.9996 15.4963C30.9988 11.3858 29.3652 7.44396 26.4581 4.53783ZM23.4739 21.591C23.4732 21.5916 23.4725 21.5924 23.4718 21.593V21.5879L22.6864 22.368C21.6708 23.3965 20.1915 23.8197 18.7856 23.484C17.3691 23.1049 16.0225 22.5014 14.7969 21.6964C13.6583 20.9687 12.6031 20.118 11.6504 19.1595C10.7739 18.2894 9.98644 17.334 9.29959 16.3075C8.54833 15.203 7.9537 13.9999 7.53259 12.7322C7.04985 11.243 7.44989 9.60887 8.56595 8.51103L9.48559 7.59139C9.74128 7.33455 10.1568 7.33364 10.4135 7.58933C10.4142 7.58999 10.4149 7.59066 10.4156 7.59139L13.3192 10.495C13.5761 10.7507 13.577 11.1662 13.3213 11.423C13.3206 11.4236 13.32 11.4243 13.3192 11.425L11.6142 13.13C11.125 13.6139 11.0635 14.3829 11.4696 14.9384C12.0863 15.7847 12.7687 16.5811 13.5104 17.3202C14.3375 18.1508 15.2365 18.9064 16.1971 19.5781C16.7521 19.9652 17.5046 19.9 17.9847 19.4231L19.6329 17.7491C19.8886 17.4923 20.304 17.4913 20.5608 17.747C20.5615 17.7477 20.5622 17.7484 20.5629 17.7491L23.4717 20.6631C23.7286 20.9187 23.7295 21.3341 23.4739 21.591Z" fill="#EF233C"/>
</g>
<defs>
<clipPath id="clip0">
<rect width="31" height="31" fill="white"/>
</clipPath>
</defs>
</svg>
